<svg id="Layer_1" data-name="Layer 1" xmlns="http://www.w3.org/2000/svg" viewBox="0 0 198.75 300"><defs><style>.cls-1{fill:#ed1b3a;}</style></defs><title>giraffe website_FOR MOCKUPS</title><path class="cls-1" d="M99.38,277.45a9.74,9.74,0,0,1-9.74-9.74V26.51a9.75,9.75,0,1,1,19.49,0v241.2A9.74,9.74,0,0,1,99.38,277.45Z"/><path class="cls-1" d="M26.8,196.48h0a9.75,9.75,0,0,1,13.79.5l51.63,55.56a9.76,9.76,0,0,0,14.29,0L158.16,197a9.75,9.75,0,0,1,13.79-.5h0a9.76,9.76,0,0,1,.5,13.78l-65.94,70.91a9.77,9.77,0,0,1-14.29,0L26.3,210.26A9.76,9.76,0,0,1,26.8,196.48Z"/></svg>